<?xml version="1.0" standalone="no"?>
<!DOCTYPE svg PUBLIC "-//W3C//DTD SVG 20010904//EN"
 "http://www.w3.org/TR/2001/REC-SVG-20010904/DTD/svg10.dtd">
<svg version="1.0" xmlns="http://www.w3.org/2000/svg"
 width="840.000000pt" height="1073.000000pt" viewBox="0 0 840.000000 1073.000000"
 preserveAspectRatio="xMidYMid meet">

<g transform="translate(0.000000,1073.000000) scale(0.100000,-0.100000)"
fill="#000000" stroke="none">
<path d="M1794 10282 c-110 -129 -228 -337 -297 -522 -77 -207 -127 -481 -127
-691 0 -117 -4 -124 -48 -93 -13 9 -25 14 -28 11 -2 -2 -7 -41 -11 -86 l-6
-82 -39 37 c-21 21 -38 35 -38 32 0 -3 24 -102 54 -219 70 -274 106 -451 113
-553 l5 -81 -113 -104 c-96 -87 -209 -204 -209 -216 0 -2 39 8 88 21 158 44
364 95 373 92 4 -2 -38 -37 -94 -78 -126 -92 -376 -339 -446 -440 -53 -76 -95
-149 -89 -155 2 -2 28 12 58 31 70 45 170 96 170 87 0 -3 -36 -71 -80 -149
-110 -196 -115 -209 -139 -374 -79 -552 -306 -1005 -600 -1201 -42 -28 -78
-53 -80 -55 -9 -9 101 -47 184 -65 119 -25 348 -25 498 0 59 9 107 16 107 14
0 -1 -16 -24 -36 -50 -103 -135 -164 -363 -164 -608 l1 -120 45 87 c45 86 117
168 148 168 28 0 41 -42 41 -136 0 -84 -2 -95 -37 -165 -20 -40 -58 -98 -84
-128 -41 -46 -44 -52 -23 -46 66 19 134 59 179 104 27 27 50 44 50 37 0 -27
-42 -225 -80 -376 -78 -311 -184 -605 -321 -889 -68 -141 -106 -212 -187 -351
-8 -14 83 73 201 192 l216 218 -38 -78 c-66 -135 -109 -216 -140 -262 -17 -24
-28 -46 -26 -48 9 -9 102 20 152 48 33 17 53 23 53 16 0 -19 -117 -416 -135
-460 -9 -21 -14 -41 -10 -44 17 -17 254 84 383 163 23 14 42 22 42 18 0 -5
-16 -63 -35 -130 -19 -67 -35 -124 -35 -126 0 -3 87 -51 193 -107 1077 -575
1907 -1105 2239 -1431 45 -43 68 -61 68 -49 0 21 -43 147 -64 188 -9 18 -13
32 -9 32 4 0 144 -136 310 -302 l303 -303 257 255 c142 140 284 280 317 310
l58 55 -25 -50 c-27 -55 -51 -122 -62 -175 -7 -34 -5 -32 86 56 153 147 318
273 629 480 407 271 973 604 1608 943 94 51 172 97 172 102 0 6 -16 65 -35
131 -19 67 -34 123 -32 124 1 1 54 -27 117 -62 124 -70 254 -124 295 -124 25
0 25 1 11 28 -21 41 -146 455 -146 485 0 4 19 -3 43 -17 43 -25 155 -61 163
-53 3 3 -15 36 -39 73 -45 70 -138 250 -152 292 -3 13 43 -30 103 -95 61 -65
156 -163 213 -218 93 -91 100 -96 77 -55 -250 443 -389 792 -507 1265 -34 138
-73 336 -67 342 2 2 13 -8 24 -22 35 -44 104 -94 161 -115 29 -12 56 -19 58
-17 2 3 -10 20 -27 38 -107 116 -155 246 -130 362 16 76 21 83 60 67 40 -16
91 -84 137 -177 19 -40 37 -73 40 -73 11 0 -7 277 -23 362 -28 153 -86 298
-153 382 -17 21 -31 40 -31 41 0 1 33 -4 73 -12 39 -7 153 -16 252 -19 156 -5
193 -3 276 14 53 11 118 30 145 42 44 20 47 23 30 33 -116 71 -238 185 -320
301 -172 240 -308 630 -356 1016 -11 91 -36 149 -154 352 -31 54 -56 100 -56
103 0 8 53 -18 144 -72 49 -29 91 -52 92 -50 6 5 -84 148 -124 197 -122 152
-255 278 -433 413 -50 37 -84 67 -77 67 16 0 438 -109 449 -116 19 -11 7 11
-27 52 -19 24 -92 95 -161 157 l-125 112 6 74 c8 101 57 337 116 569 28 105
50 197 50 204 0 7 -18 -6 -40 -27 l-40 -39 0 87 c0 48 -3 87 -7 87 -5 -1 -19
-7 -33 -15 -14 -8 -28 -14 -31 -15 -4 0 -10 55 -13 123 -23 397 -110 705 -278
986 -55 93 -174 251 -188 251 -4 0 -24 -19 -43 -41 l-34 -42 -218 42 c-119 23
-223 40 -231 37 -8 -3 -14 -12 -14 -20 0 -19 -94 -149 -186 -257 -230 -272
-762 -831 -783 -825 -277 81 -1340 85 -1693 7 l-37 -9 -153 157 c-415 424
-741 797 -791 903 -12 26 -29 47 -37 48 -9 0 -108 -18 -220 -40 -113 -22 -210
-40 -216 -40 -5 0 -23 18 -40 40 -16 22 -33 39 -39 39 -5 0 -24 -17 -41 -37z
m266 -332 c12 -17 39 -71 60 -120 41 -96 211 -422 305 -585 154 -267 319 -509
394 -579 17 -17 31 -33 31 -38 0 -4 -46 -5 -102 -2 -90 5 -258 -5 -355 -22
-31 -6 -33 -3 -88 82 -76 117 -76 118 -22 94 44 -20 137 -38 137 -27 0 3 -26
49 -58 104 -140 235 -277 493 -312 585 l-13 33 -13 -70 c-29 -159 -46 -360
-41 -483 l6 -123 -27 20 c-26 19 -64 57 -91 93 -7 10 -19 34 -26 55 l-13 36
-22 -94 c-12 -52 -25 -124 -28 -161 -2 -38 -6 -68 -8 -68 -2 0 -19 17 -39 38
-31 33 -34 35 -35 15 0 -38 67 -284 99 -363 17 -41 31 -80 31 -86 0 -23 -43
-66 -61 -61 -11 3 -41 -3 -69 -14 -81 -31 -78 -35 -74 109 2 70 9 276 14 457
12 387 28 667 39 678 4 4 26 1 48 -7 l41 -14 7 61 c10 84 21 110 44 104 14 -3
22 6 36 47 10 28 38 101 62 161 70 176 100 206 143 145z m4372 -25 c15 -27 51
-112 79 -187 41 -106 57 -138 70 -138 26 0 37 -27 45 -104 6 -56 9 -66 23 -60
43 17 72 26 76 23 8 -9 25 -299 35 -594 5 -170 13 -392 16 -492 7 -207 11
-197 -74 -164 -27 11 -58 18 -68 15 -13 -4 -27 5 -42 26 l-23 31 29 77 c17 42
41 113 55 157 22 70 31 109 52 225 5 22 0 19 -35 -20 -22 -25 -40 -40 -40 -35
-2 62 -46 283 -60 298 -5 5 -11 -5 -15 -22 -6 -30 -91 -133 -124 -150 -15 -8
-16 4 -13 130 4 140 -4 249 -34 437 l-17 102 -37 -87 c-44 -103 -150 -301
-266 -498 -77 -131 -80 -140 -59 -143 20 -3 90 18 149 43 14 6 9 -6 -19 -51
-21 -32 -50 -78 -64 -102 -24 -41 -28 -43 -61 -38 -112 19 -248 27 -349 21
l-114 -6 50 58 c177 206 418 606 644 1068 59 121 111 224 115 228 20 19 50 0
76 -48z m-3116 -2350 c99 -19 205 -69 269 -127 166 -151 215 -443 134 -790
-26 -112 -42 -114 -109 -13 -141 213 -349 414 -515 497 -174 88 -375 95 -526
17 l-37 -19 -49 33 c-55 37 -63 61 -33 100 31 39 169 102 292 133 l108 26 -40
29 c-48 35 -65 63 -47 77 11 9 129 34 212 45 78 10 270 6 341 -8z m2225 -10
c47 -9 91 -20 99 -25 21 -13 -3 -51 -51 -82 l-40 -26 78 -17 c169 -37 299 -99
339 -160 16 -25 16 -27 -7 -51 -13 -14 -38 -34 -56 -45 l-32 -20 -52 27 c-169
85 -400 56 -602 -77 -136 -90 -322 -284 -425 -446 -34 -52 -77 -90 -86 -74 -3
4 -17 66 -31 137 -35 169 -37 359 -6 477 55 212 192 344 406 391 90 20 343 15
466 -9z m-3474 -94 c-22 -55 -64 -220 -79 -311 -17 -108 -14 -319 6 -412 29
-135 89 -259 165 -341 25 -28 26 -29 7 -43 -13 -9 -46 -14 -90 -15 l-71 -1
145 -70 c182 -88 374 -167 510 -208 58 -18 112 -34 120 -37 10 -3 2 -11 -23
-25 -22 -10 -36 -22 -33 -25 3 -3 64 -11 136 -18 72 -7 133 -15 136 -18 7 -7
52 -356 60 -472 4 -49 9 -95 13 -102 5 -10 356 698 356 720 0 5 -25 19 -55 30
-30 11 -57 22 -60 25 -3 2 15 22 40 44 25 22 37 37 27 34 -9 -3 -68 -16 -130
-28 -131 -26 -371 -32 -421 -10 l-29 13 44 45 c24 25 64 60 89 77 l45 31 -110
14 c-204 25 -363 72 -419 124 l-31 29 114 -6 c63 -4 121 -9 130 -13 9 -3 -11
15 -45 40 -65 48 -119 122 -150 203 -25 65 -28 320 -5 335 8 4 45 11 82 15 53
5 74 3 100 -10 58 -29 89 -65 89 -102 0 -47 24 -100 72 -156 l41 -49 -43 22
c-23 12 -62 40 -86 62 -25 23 -46 39 -49 36 -12 -12 21 -85 57 -124 85 -92
212 -126 466 -122 l167 3 90 -46 c50 -25 116 -56 147 -68 32 -13 62 -29 68
-36 8 -10 -3 -46 -45 -145 -31 -73 -55 -134 -53 -136 2 -2 47 39 100 91 l97
94 -13 -42 c-35 -114 -149 -463 -154 -471 -5 -8 121 58 146 77 27 21 18 -3
-39 -101 -214 -373 -393 -750 -472 -999 -47 -146 -60 -213 -60 -309 0 -95 26
-161 90 -234 30 -34 42 -57 47 -94 19 -126 108 -331 216 -496 34 -52 63 -96
65 -98 1 -1 74 5 161 13 255 26 548 30 784 11 113 -9 223 -19 246 -22 l41 -6
60 94 c113 174 223 429 223 517 0 20 14 46 46 83 91 105 111 202 75 376 -51
246 -242 680 -495 1125 -46 81 -81 147 -77 146 3 0 40 -20 81 -43 41 -24 76
-43 77 -42 1 1 -34 112 -77 246 -44 135 -80 249 -80 254 0 5 41 -30 90 -79 50
-48 93 -86 96 -83 2 3 -20 63 -51 133 -58 134 -59 146 -12 161 12 4 81 34 152
68 l130 61 167 -3 c184 -3 271 10 362 51 62 29 120 83 141 134 27 63 17 66
-47 14 -34 -28 -75 -55 -91 -61 -29 -10 -28 -9 13 36 48 52 70 99 70 147 0 43
29 81 82 108 34 18 51 20 108 14 36 -4 72 -10 79 -14 7 -5 18 -45 23 -90 25
-190 -47 -365 -189 -461 -27 -18 -41 -30 -32 -27 9 3 67 8 130 12 l114 8 -20
-23 c-49 -55 -220 -108 -427 -132 l-107 -13 64 -50 c35 -27 74 -62 85 -78 l21
-27 -28 -12 c-18 -8 -79 -12 -173 -12 -118 1 -167 6 -264 27 -66 15 -121 25
-123 23 -2 -1 15 -17 37 -35 22 -17 40 -35 40 -39 0 -5 -17 -14 -37 -21 -92
-33 -90 -14 -19 -163 35 -73 117 -241 181 -373 l118 -240 13 125 c27 257 56
465 66 471 6 4 60 10 122 14 61 3 122 9 135 12 23 6 23 7 -12 25 -21 10 -37
22 -37 26 0 4 33 16 73 26 140 36 431 155 632 259 l70 36 -71 1 c-41 0 -78 5
-88 13 -16 12 -15 17 24 62 53 64 123 209 146 305 15 58 19 112 19 235 -1 175
-20 297 -75 464 -15 47 -27 87 -26 88 1 1 33 -22 72 -50 91 -65 164 -178 263
-405 44 -99 48 -131 29 -195 -10 -32 -10 -41 0 -45 30 -10 50 -40 56 -84 5
-46 5 -47 -27 -57 -18 -6 -63 -14 -102 -19 l-70 -8 72 -48 c47 -31 83 -65 102
-95 l30 -46 -11 -115 c-6 -63 -14 -119 -18 -123 -4 -5 -34 5 -66 21 -114 57
-112 65 -30 -136 l74 -180 -36 -162 c-34 -149 -38 -160 -52 -143 -65 82 -71
88 -65 66 3 -11 12 -69 20 -127 13 -104 13 -108 -10 -174 -38 -112 -36 -109
-56 -53 -17 49 -81 153 -133 216 l-24 30 19 -70 c20 -73 53 -250 64 -345 l6
-55 -29 60 c-25 52 -139 192 -148 183 -2 -2 1 -21 6 -43 9 -38 24 -196 35
-365 l5 -75 -37 70 c-41 81 -154 200 -221 234 -25 13 -40 17 -35 9 4 -7 26
-40 47 -73 172 -261 176 -679 11 -1170 -29 -88 -64 -182 -76 -210 l-24 -50 -7
120 c-19 312 -54 585 -78 609 -7 7 -10 -12 -10 -51 0 -59 -3 -66 -77 -187 -43
-69 -81 -125 -84 -126 -4 0 -10 12 -14 28 -6 25 -8 23 -29 -33 -23 -64 -62
-136 -137 -255 l-48 -75 6 56 c6 63 -5 176 -16 163 -4 -5 -16 -36 -26 -69 -65
-199 -433 -869 -915 -1665 -296 -489 -279 -465 -327 -468 -49 -4 -21 -42 -251
338 -568 935 -917 1565 -996 1801 -30 90 -40 77 -41 -53 0 -49 -1 -88 -2 -88
-1 0 -27 41 -59 92 -62 101 -134 243 -134 267 -1 9 -7 3 -14 -14 l-12 -30 -16
25 c-9 14 -44 70 -79 125 -57 90 -64 107 -69 165 l-6 65 -12 -40 c-19 -59 -49
-306 -62 -510 -6 -99 -13 -181 -15 -183 -5 -6 -81 197 -119 317 -20 62 -48
172 -63 245 -26 120 -28 149 -28 341 1 185 4 219 23 290 27 99 77 205 125 268
20 26 33 47 28 47 -5 0 -36 -18 -70 -41 -76 -51 -149 -131 -189 -211 l-32 -61
0 74 c0 67 22 300 36 374 5 28 1 26 -54 -32 -32 -34 -73 -90 -90 -125 l-32
-63 6 45 c21 159 56 336 80 407 8 21 -75 -82 -107 -134 -12 -20 -32 -60 -45
-90 l-22 -55 -26 79 c-30 90 -31 124 -11 248 8 49 13 90 11 92 -1 2 -19 -20
-38 -49 l-36 -51 -11 39 c-6 21 -23 94 -38 162 l-27 123 72 177 c39 97 70 178
68 180 -2 1 -38 -14 -79 -35 -42 -20 -79 -34 -83 -31 -3 4 -11 60 -18 125
l-12 118 30 45 c18 28 58 66 103 96 l73 51 -74 6 c-106 9 -126 19 -126 61 0
44 16 86 32 86 33 1 38 15 23 64 -8 27 -15 60 -15 73 0 30 125 292 186 391 34
54 64 87 117 127 39 29 73 52 76 50 2 -2 -4 -22 -12 -44z m-309 -127 c-253
-455 -400 -973 -386 -1360 4 -112 8 -130 63 -299 182 -562 256 -837 280 -1038
7 -65 -1 -120 -18 -114 -18 6 -119 140 -169 225 -56 94 -88 180 -88 232 0 22
-4 40 -9 40 -12 0 -138 -139 -173 -192 -36 -52 -36 -39 -3 128 30 148 66 281
94 348 11 25 17 46 13 46 -7 0 -165 -91 -216 -125 l-29 -19 7 49 c16 110 111
357 168 438 11 16 18 30 16 32 -2 3 -28 -5 -58 -16 -74 -28 -256 -74 -370 -93
-111 -19 -292 -37 -299 -30 -8 8 102 114 169 162 36 26 124 77 195 114 145 75
143 78 -30 53 -55 -7 -102 -12 -104 -9 -8 8 168 170 246 227 43 30 114 74 157
96 43 22 81 43 85 47 13 14 -133 -8 -207 -31 -42 -13 -78 -22 -80 -20 -3 2 13
26 35 52 67 79 334 436 330 439 -2 2 -28 -9 -58 -26 -77 -41 -188 -82 -215
-78 -23 3 -23 3 14 75 81 159 225 337 428 533 101 97 267 240 279 240 1 0 -29
-57 -67 -126z m4962 11 c258 -220 473 -472 574 -672 32 -64 32 -63 2 -63 -33
0 -93 22 -187 70 -45 23 -83 39 -85 38 -3 -4 236 -321 330 -439 35 -44 44 -61
30 -56 -126 38 -168 48 -221 53 -35 4 -63 4 -63 1 0 -3 28 -18 63 -34 81 -39
158 -89 248 -162 85 -68 185 -168 178 -176 -3 -3 -28 -1 -55 4 -27 5 -85 12
-129 16 l-80 6 105 -53 c58 -29 143 -78 190 -109 88 -58 200 -156 200 -176 0
-36 -510 54 -673 118 -27 11 -51 18 -52 17 -2 -2 17 -36 41 -77 24 -41 57
-113 75 -160 33 -91 82 -271 75 -278 -2 -2 -28 11 -57 30 -67 42 -184 107
-193 107 -3 0 2 -17 13 -37 33 -67 93 -304 126 -498 l6 -40 -37 54 c-20 30
-69 88 -109 129 l-72 75 -1 -49 c-2 -92 -64 -219 -189 -387 -79 -106 -88 -102
-80 37 8 150 90 475 222 876 113 345 115 353 115 519 0 226 -35 432 -116 682
-73 226 -185 482 -295 671 -22 36 -39 70 -39 74 0 8 -4 11 140 -111z m-3816
-271 l46 -7 0 -51 c0 -75 33 -135 90 -164 41 -21 54 -23 140 -18 52 3 103 6
114 8 13 2 26 -12 47 -48 l29 -51 -88 -7 c-181 -14 -342 25 -414 101 -52 54
-73 151 -48 217 10 28 14 29 84 20z m2680 -16 c10 -41 6 -128 -8 -162 -20 -49
-82 -103 -142 -126 -30 -11 -96 -25 -147 -30 -91 -11 -247 -4 -247 10 0 4 12
29 26 55 22 39 30 46 48 40 11 -3 62 -9 111 -11 81 -5 95 -3 134 18 66 34 85
66 89 148 l4 69 42 4 c22 2 51 4 62 5 15 1 24 -5 28 -20z m-2471 -33 c29 -13
68 -38 87 -55 34 -29 34 -30 16 -45 -29 -22 -82 -29 -117 -15 -33 14 -54 47
-64 103 -9 46 4 48 78 12z m2257 0 c0 -40 -26 -92 -54 -110 -29 -20 -99 -14
-132 10 -18 13 -18 14 0 34 21 23 150 91 172 91 8 0 14 -11 14 -25z m-716
-1435 c216 -202 382 -570 462 -1023 14 -81 14 -82 -11 -130 -13 -26 -46 -76
-72 -110 -51 -67 -259 -279 -334 -340 l-46 -37 -45 20 c-102 45 -171 54 -403
54 -236 0 -314 -10 -408 -54 l-47 -22 -78 68 c-166 148 -308 305 -367 407 -33
58 -32 96 10 282 79 353 220 660 383 837 55 59 165 148 183 148 5 0 -1 -21
-14 -47 -35 -68 -50 -121 -43 -147 l5 -22 88 19 c131 28 361 33 493 12 58 -10
120 -20 139 -22 l34 -6 -5 45 c-4 37 -23 86 -66 171 -10 21 81 -45 142 -103z
m-3139 -1287 c12 -10 38 -67 59 -128 55 -156 136 -346 146 -340 5 3 11 24 15
48 12 71 17 74 61 35 80 -70 78 -69 72 -15 -3 26 -3 47 1 47 15 0 479 -431
812 -755 724 -704 1242 -1291 1410 -1599 30 -54 33 -52 42 29 l3 30 18 -42
c19 -44 30 -53 40 -30 3 8 9 6 17 -7 11 -18 14 -16 34 30 l22 49 8 -53 7 -54
48 80 c118 196 308 434 620 777 298 328 921 944 1380 1365 74 68 152 140 174
159 l38 36 -6 -52 c-4 -29 -5 -53 -2 -53 2 0 28 20 57 45 54 46 68 49 70 12 0
-12 6 -40 13 -62 l12 -40 55 135 c31 74 71 178 89 230 25 73 41 103 69 128 19
18 37 29 38 25 2 -5 -6 -35 -17 -68 -25 -74 -25 -85 4 -143 61 -121 196 -543
196 -613 0 -11 -161 -11 -237 0 -29 4 -53 5 -53 2 0 -3 16 -21 35 -40 39 -39
87 -126 115 -207 l20 -56 -73 -75 c-189 -196 -692 -607 -1518 -1240 -520 -398
-1202 -904 -1214 -899 -15 5 -371 270 -820 610 -964 728 -1632 1264 -1874
1502 -91 89 -94 94 -88 128 9 59 73 179 124 237 30 33 41 50 28 45 -32 -12
-271 -20 -278 -9 -16 26 102 412 179 585 l43 98 -25 72 c-13 39 -24 73 -24 75
0 6 33 -15 55 -34z m2032 -274 c102 -94 197 -169 213 -169 6 0 31 11 54 25
l43 25 339 2 339 1 57 -28 57 -28 53 40 c29 23 96 79 148 126 52 47 96 84 98
82 5 -4 -60 -158 -120 -287 l-52 -110 -35 6 c-160 27 -211 30 -541 30 -330 0
-381 -3 -541 -30 l-35 -6 -81 183 c-85 194 -95 219 -88 219 3 0 44 -36 92 -81z"/>
<path d="M3925 5133 c-297 -16 -287 -12 -338 -117 -39 -80 -50 -139 -50 -268
0 -110 1 -120 26 -157 51 -77 274 -247 473 -360 86 -49 93 -51 165 -51 72 0
79 2 164 51 191 109 373 244 453 334 31 36 40 55 45 97 21 175 -16 344 -95
429 -27 29 -61 33 -363 44 -82 3 -166 7 -185 9 -19 2 -152 -3 -295 -11z"/>
</g>
</svg>
